<svg width="512" height="512" viewBox="0 0 512 512" fill="none" xmlns="http://www.w3.org/2000/svg">
<rect width="512" height="512" fill="#0A0E1A"/>
<path d="M327.937 396.658V371.712H302.802V321.267H277.666V268.605H305.564V318.495H330.423V368.941H353.073V318.495H377.933V268.605H406.107V321.267H380.695V371.712H355.835V396.658H327.937Z" fill="#3B82F6"/>
<path d="M176.035 115V139.945H201.171V190.391H226.307V243.053H198.409V193.162H173.549V142.717H150.899V193.162H126.04V243.053H97.8653V190.391H123.277V139.945H148.137V115H176.035Z" fill="#3B82F6"/>
<path d="M419.107 249.116V221.122H497V249.116H419.107Z" fill="#3B82F6"/>
<path d="M396.957 272.069V244.075H424.855V272.069H396.957Z" fill="#3B82F6"/>
<path d="M43.0533 295.889V267.894H70.9513V295.889H43.0533Z" fill="#3B82F6"/>
<path d="M15 324.039V296.045H42.898V324.039H15Z" fill="#3B82F6"/>
<path d="M71.1067 272.069V244.075H99.0047V272.069H71.1067Z" fill="#3B82F6"/>
<path d="M200.722 317.248V270.129H150.726V242.412H200.722V189.195H228.896V242.412H279.168V270.129H228.896V317.248H200.722Z" fill="#3B82F6"/>
</svg>
