<svg width="180" height="180" viewBox="0 0 180 180" fill="none" xmlns="http://www.w3.org/2000/svg">
<g clip-path="url(#clip0_9_21)">
<rect width="180" height="180" rx="16" fill="#0A0E1A"/>
<path d="M115.126 137.418V128.879H106.521V111.61H97.9167V93.5825H107.467V110.661H115.977V127.93H123.73V110.661H132.241V93.5825H141.885V111.61H133.186V128.879H124.676V137.418H115.126Z" fill="#3B82F6"/>
<path d="M63.1261 41V49.5394H71.7307V66.808H80.3352V84.8356H70.7851V67.7568H62.2751V50.4882H54.5215V67.7568H46.0115V84.8356H36.3668V66.808H45.0659V49.5394H53.5759V41H63.1261Z" fill="#3B82F6"/>
<path d="M146.335 86.9111V77.328H173V86.9111H146.335Z" fill="#3B82F6"/>
<path d="M138.753 94.7685V85.1854H148.303V94.7685H138.753Z" fill="#3B82F6"/>
<path d="M17.6033 102.922V93.3394H27.1535V102.922H17.6033Z" fill="#3B82F6"/>
<path d="M8 112.559V102.976H17.5501V112.559H8Z" fill="#3B82F6"/>
<path d="M27.2067 94.7685V85.1854H36.7568V94.7685H27.2067Z" fill="#3B82F6"/>
<path d="M71.577 110.234V94.1044H54.4624V84.6161H71.577V66.3988H81.2217V84.6161H98.4309V94.1044H81.2217V110.234H71.577Z" fill="#3B82F6"/>
<path d="M21 162V151.9H31.1V162H21Z" fill="#F8FAFC"/>
<path d="M63.1875 162V151.9H73.2875V162H63.1875Z" fill="#2563EB"/>
<path d="M105.375 162V151.9H115.475V162H105.375Z" fill="#F59E0B"/>
<path d="M147.563 162V151.9H157.663V162H147.563Z" fill="#EF4444"/>
</g>
<defs>
<clipPath id="clip0_9_21">
<rect width="180" height="180" rx="16" fill="white"/>
</clipPath>
</defs>
</svg>
